 http://img23.imageshack.us/img23/1903/greenlanternmovie2011pr.jpg

Country.......: USA
Genre.........: Sci-Fi, Action
Date release..: 14.06.2011 [World]
Director......: Martin Campbell
Writers.......: Greg Berlanti, Michael Green
Duration......: 101 min.
More..........: http://www.imdb.com/title/tt1133985
Trailer.......: http://www.imdb.com/video/imdb/vi3445005593
Trailer.......:

Pilot :
A test pilot is granted a mystical green ring that bestows him with otherworldly powers, as well as membership into an intergalactic squadron tasked with keeping peace within the universe.

Cats :
Ryan Reynolds   	 ...  	Hal Jordan / Green Lantern
Blake Lively 	... 	Carol Ferris
Peter Sarsgaard 	... 	Hector Hammond
Mark Strong 	... 	Sinestro
Tim Robbins 	... 	Hammond
Jay O. Sanders 	... 	Carl Ferris
Taika Waititi 	... 	Tom Kalmaku
Angela Bassett 	... 	Doctor Waller
Mike Doyle 	... 	Jack Jordan
Nick Jandl 	... 	Jim Jordan
Dylan James 	... 	Jason Jordan
Gattlin Griffith 	... 	Young Hal
Jon Tenney 	... 	Martin Jordan
Leanne Cochran 	... 	Janice Jordan
Temuera Morrison 	... 	Abin Sur 

Data Technical :
!!! SAMPLE !!!
Audio.....: English
Subtitles.: None
Format                           : AVI
Format/Info                      : Audio Video Interleave
File size                        : 1.36 GiB
Duration                         : 1h 41mn
Overall bit rate                 : 1 930 Kbps
Writing library                  : VirtualDub build 32706/release
Video
ID                               : 0
Format                           : MPEG-4 Visual
Format profile                   : Advanced Simple@L5
Format settings, BVOP            : Yes
Format settings, QPel            : No
Format settings, GMC             : No warppoints
Format settings, Matrix          : Default (MPEG)
Muxing mode                      : Packed bitstream
Codec ID                         : XVID
Codec ID/Hint                    : XviD
Duration                         : 1h 41mn
Bit rate                         : 1 792 Kbps
Width                            : 720 pixels
Height                           : 320 pixels
Display aspect ratio             : 2.25:1
Frame rate                       : 25.000 fps
Color space                      : YUV
Chroma subsampling               : 4:2:0
Bit depth                        : 8 bits
Scan type                        : Progressive
Bits/(Pixel*Frame)               : 0.311
Stream size                      : 1.26 GiB (93%)
Writing library                  : XviD 61
Audio
ID                               : 1
Format                           : MPEG Audio
Format version                   : Version 1
Format profile                   : Layer 3
Mode                             : Joint stereo
Mode extension                   : MS Stereo
Codec ID                         : 55
Codec ID/Hint                    : MP3
Duration                         : 1h 41mn
Bit rate mode                    : Constant
Bit rate                         : 128 Kbps
Channel(s)                       : 2 channels
Sampling rate                    : 44.1 KHz
Stream size                      : 92.5 MiB (7%)
Alignment                        : Split accross interleaves
Interleave, duration             : 40 ms (1.00 video frame)
Writing library                  : LAME3.98r
Encoding settings                : -m j -V 4 -q 2 -lowpass 17 -b 128

Screen : 
http://img828.imageshack.us/img828/2816/greenlantern2011s1.jpg 
http://img847.imageshack.us/img847/3923/greenlantern2011s2.jpg 
http://img842.imageshack.us/img842/8312/greenlantern2011s3.jpg 
http://img535.imageshack.us/img535/6390/greenlantern2011s4.jpg 
http://img607.imageshack.us/img607/4575/greenlantern2011s5.jpg